<svg xmlns="http://www.w3.org/2000/svg" width="32.785" height="32.782" viewBox="1482.255 27.239 32.785 32.782"><g data-name="Контур 32"><path d="M1515.29 31.01V56.75c-.017.038-.043.075-.05.115-.402 2.115-1.958 3.405-4.117 3.406h-7.01c-.83 0-1.18-.355-1.18-1.192V47.779c0-.829.354-1.18 1.192-1.182.96-.002 1.92 0 2.88-.001.114 0 .228-.01.354-.015v-2.74h-.364c-.993 0-1.985.005-2.977-.003-.712-.005-1.083-.384-1.084-1.092a852.355 852.355 0 0 1 0-3.65c.001-.79.438-1.228 1.227-1.231.95-.004 1.899 0 2.848-.001h.34V35.11c-1.083 0-2.138-.003-3.193 0-2.31.007-3.971 1.67-3.977 3.978-.002 1.195 0 2.39 0 3.585-.001.813-.352 1.162-1.173 1.164-.97.002-1.942 0-2.913.001-.111 0-.223.013-.334.02v2.738h.37c.97 0 1.941-.003 2.912.002.773.004 1.137.37 1.137 1.14v11.394c0 .77-.37 1.138-1.138 1.138-4.14 0-8.28.002-12.42-.004a4.43 4.43 0 0 1-.982-.1c-1.907-.44-3.128-2.017-3.129-4.025-.002-7.245 0-14.49 0-21.734 0-.992-.011-1.984.003-2.976a3.981 3.981 0 0 1 2.72-3.731c.26-.088.532-.142.798-.211h25.739c.048.018.095.046.145.055 1.263.21 2.23.869 2.845 1.982.25.454.358.987.531 1.484m-10.408 27.329h.327c1.964 0 3.927.002 5.89-.001 1.397-.002 2.258-.86 2.259-2.254.001-8.142.002-16.283 0-24.424-.001-1.375-.866-2.238-2.242-2.239-8.142-.002-16.283-.002-24.424.003-.243 0-.494.022-.727.085-.979.263-1.525 1.063-1.525 2.206v24.327c0 1.443.847 2.296 2.282 2.296 3.724.002 7.448 0 11.172 0 .112 0 .224-.01.332-.015v-9.784h-.368c-.982 0-1.964.004-2.945-.001-.728-.004-1.119-.384-1.122-1.1a541.356 541.356 0 0 1 0-4.45c.004-.7.397-1.082 1.103-1.085.992-.004 1.985-.001 2.977-.001h.377v-.38c.003-.917-.015-1.835.01-2.752a5.74 5.74 0 0 1 5.608-5.58c1.45-.032 2.902-.01 4.353-.01.724.001 1.1.379 1.103 1.11.004 1.463.004 2.924 0 4.386-.002.75-.373 1.117-1.125 1.12-.992.003-1.984 0-2.977.001-.112 0-.225.01-.331.016v2.089h3.255c.808.001 1.177.368 1.179 1.173.002 1.43.001 2.86 0 4.29-.001.805-.37 1.172-1.178 1.173-.97.003-1.942 0-2.913.002-.113 0-.226.01-.35.015v9.784Z" fill="#ededed" fill-rule="evenodd"/><path d="M1515.29 31.01V56.75c-.017.038-.043.075-.05.115-.402 2.115-1.958 3.405-4.117 3.406h-7.01c-.83 0-1.18-.355-1.18-1.192V47.779c0-.829.354-1.18 1.192-1.182.96-.002 1.92 0 2.88-.001.114 0 .228-.01.354-.015v-2.74h-.364c-.993 0-1.985.005-2.977-.003-.712-.005-1.083-.384-1.084-1.092a852.355 852.355 0 0 1 0-3.65c.001-.79.438-1.228 1.227-1.231.95-.004 1.899 0 2.848-.001h.34V35.11c-1.083 0-2.138-.003-3.193 0-2.31.007-3.971 1.67-3.977 3.978-.002 1.195 0 2.39 0 3.585-.001.813-.352 1.162-1.173 1.164-.97.002-1.942 0-2.913.001-.111 0-.223.013-.334.02v2.738h.37c.97 0 1.941-.003 2.912.002.773.004 1.137.37 1.137 1.14v11.394c0 .77-.37 1.138-1.138 1.138-4.14 0-8.28.002-12.42-.004a4.43 4.43 0 0 1-.982-.1c-1.907-.44-3.128-2.017-3.129-4.025-.002-7.245 0-14.49 0-21.734 0-.992-.011-1.984.003-2.976a3.981 3.981 0 0 1 2.72-3.731c.26-.088.532-.142.798-.211h25.739c.048.018.095.046.145.055 1.263.21 2.23.869 2.845 1.982.25.454.358.987.531 1.484m-10.408 27.329h.327c1.964 0 3.927.002 5.89-.001 1.397-.002 2.258-.86 2.259-2.254.001-8.142.002-16.283 0-24.424-.001-1.375-.866-2.238-2.242-2.239-8.142-.002-16.283-.002-24.424.003-.243 0-.494.022-.727.085-.979.263-1.525 1.063-1.525 2.206v24.327c0 1.443.847 2.296 2.282 2.296 3.724.002 7.448 0 11.172 0 .112 0 .224-.01.332-.015v-9.784h-.368c-.982 0-1.964.004-2.945-.001-.728-.004-1.119-.384-1.122-1.1a541.356 541.356 0 0 1 0-4.45c.004-.7.397-1.082 1.103-1.085.992-.004 1.985-.001 2.977-.001h.377v-.38c.003-.917-.015-1.835.01-2.752a5.74 5.74 0 0 1 5.608-5.58c1.45-.032 2.902-.01 4.353-.01.724.001 1.1.379 1.103 1.11.004 1.463.004 2.924 0 4.386-.002.75-.373 1.117-1.125 1.12-.992.003-1.984 0-2.977.001-.112 0-.225.01-.331.016v2.089h3.255c.808.001 1.177.368 1.179 1.173.002 1.43.001 2.86 0 4.29-.001.805-.37 1.172-1.178 1.173-.97.003-1.942 0-2.913.002-.113 0-.226.01-.35.015v9.784Z" stroke-linejoin="round" stroke-linecap="round" stroke-width=".5" stroke="#ededed" fill="transparent"/></g></svg>