<svg xmlns="http://www.w3.org/2000/svg" width="32.782" height="32.782"><g data-name="free-icon-font-instagram-6422200"><path d="M16.391 2.953c4.376 0 4.896.017 6.623.096 1.787.082 3.627.489 4.929 1.79 1.314 1.314 1.708 3.137 1.79 4.929.08 1.728.096 2.247.096 6.623s-.016 4.896-.096 6.623c-.08 1.777-.497 3.635-1.79 4.929-1.314 1.314-3.135 1.708-4.929 1.79-1.727.08-2.247.096-6.623.096s-4.895-.016-6.623-.096c-1.764-.08-3.646-.506-4.929-1.79-1.307-1.308-1.708-3.147-1.79-4.929-.08-1.727-.096-2.247-.096-6.623s.017-4.895.096-6.623c.08-1.77.501-3.64 1.79-4.929 1.312-1.31 3.14-1.708 4.929-1.79 1.728-.08 2.247-.096 6.623-.096m0-2.953c-4.451 0-5.01.02-6.759.098C7.1.214 4.582.92 2.751 2.751.912 4.589.214 7.101.098 9.632.02 11.381 0 11.94 0 16.392c0 4.45.02 5.01.098 6.758.116 2.53.824 5.054 2.653 6.881 1.837 1.837 4.352 2.537 6.881 2.653 1.749.079 2.308.098 6.76.098 4.45 0 5.01-.019 6.758-.098 2.532-.116 5.05-.823 6.881-2.653 1.84-1.84 2.537-4.349 2.653-6.881.079-1.749.098-2.307.098-6.759 0-4.451-.019-5.01-.098-6.759-.116-2.533-.823-5.05-2.653-6.881C28.197.917 25.675.213 23.15.098 21.4.02 20.843 0 16.39 0Z" fill="#ededed" fill-rule="evenodd" data-name="Контур 29"/><path d="M16.391 7.994a8.398 8.398 0 1 0 0 16.795 8.398 8.398 0 0 0 0-16.795Zm0 13.848a5.451 5.451 0 1 1 0-10.903 5.451 5.451 0 0 1 0 10.903Z" fill="#ededed" fill-rule="evenodd" data-name="Контур 30"/><path d="M23.167 7.544a1.972 1.972 0 1 1 0 .1z" fill="#ededed" fill-rule="evenodd" data-name="Эллипс 2"/></g></svg>