<svg xmlns="http://www.w3.org/2000/svg" width="33" height="33" viewBox="1605 27 33 33"><g data-name="free-icon-font-edit-3917361"><path d="m1630.652 28.279-16.764 16.764a6.828 6.828 0 0 0-2.013 4.86v1.847c0 .76.616 1.375 1.375 1.375h1.847a6.828 6.828 0 0 0 4.86-2.013l16.764-16.764a4.297 4.297 0 0 0 0-6.07 4.392 4.392 0 0 0-6.069 0Zm4.125 4.125-16.764 16.764a4.152 4.152 0 0 1-2.916 1.207h-.472v-.472a4.152 4.152 0 0 1 1.207-2.916l16.764-16.764a1.579 1.579 0 0 1 2.181 0 1.544 1.544 0 0 1 0 2.18Z" fill="#01444f" fill-rule="evenodd" data-name="Контур 27"/><path d="M1636.625 39.346c-.76 0-1.375.616-1.375 1.375v6.904h-5.5a4.125 4.125 0 0 0-4.125 4.125v5.5h-13.75a4.125 4.125 0 0 1-4.125-4.125v-19.25a4.125 4.125 0 0 1 4.125-4.125h12.433a1.375 1.375 0 1 0 0-2.75h-12.433a6.883 6.883 0 0 0-6.875 6.875v19.25a6.883 6.883 0 0 0 6.875 6.875h15.597a6.831 6.831 0 0 0 4.862-2.013l3.652-3.655a6.831 6.831 0 0 0 2.014-4.86v-8.75c0-.76-.616-1.376-1.375-1.376Zm-6.236 16.697a4.09 4.09 0 0 1-2.014 1.1V51.75c0-.76.616-1.375 1.375-1.375h5.397a4.147 4.147 0 0 1-1.1 2.013l-3.658 3.655Z" fill="#01444f" fill-rule="evenodd" data-name="Контур 28"/></g></svg>