<svg xmlns="http://www.w3.org/2000/svg" width="37.804" height="32.782" viewBox="1313.874 27.239 37.804 32.782"><g data-name="Контур 31"><path d="M1351.928 30.144c-.27 1.107-.548 2.212-.81 3.32-1.951 8.299-3.898 16.598-5.852 24.895-.44 1.864-2.339 2.506-3.834 1.292a1102.704 1102.704 0 0 1-6.709-5.494c-.219-.18-.352-.2-.587-.022-1.902 1.44-3.816 2.865-5.726 4.294-.119.088-.234.18-.357.262-.787.518-1.572.254-1.807-.656-.259-.998-.455-2.012-.673-3.02-.598-2.774-1.197-5.549-1.785-8.324-.05-.236-.173-.345-.38-.435a1818.998 1818.998 0 0 1-7.8-3.41c-1.305-.576-1.833-1.921-1.244-3.137.308-.638.836-1.007 1.497-1.223 1.564-.51 3.125-1.03 4.688-1.545l28.13-9.271c1.545-.51 2.684.065 3.2 1.612.006.02.032.033.049.05v.812Zm-35.543 10.51-.012.095c.12.057.237.117.358.17 2.497 1.093 4.998 2.18 7.49 3.284.29.129.505.12.782-.034 5.505-3.07 11.016-6.13 16.527-9.19.16-.089.326-.175.499-.232.451-.148.943.016 1.216.388.268.366.287.857.026 1.244a3.701 3.701 0 0 1-.402.479l-11.043 11.55c-.09.093-.173.192-.268.298l11.484 9.397 6.69-28.441-33.347 10.993m19.897-.124-.058-.065-10.286 5.713 1.5 6.946a.444.444 0 0 0 .148-.238c.39-1.357.76-2.72 1.179-4.068.112-.36.313-.729.57-1.001 2.178-2.308 4.377-4.594 6.57-6.887.127-.132.251-.267.377-.4m-6.948 14.335.046.064 3.278-2.455-2.14-1.748-1.184 4.14" fill="#ededed" fill-rule="evenodd"/><path d="M1351.928 30.144c-.27 1.107-.548 2.212-.81 3.32-1.951 8.299-3.898 16.598-5.852 24.895-.44 1.864-2.339 2.506-3.834 1.292a1102.704 1102.704 0 0 1-6.709-5.494c-.219-.18-.352-.2-.587-.022-1.902 1.44-3.816 2.865-5.726 4.294-.119.088-.234.18-.357.262-.787.518-1.572.254-1.807-.656-.259-.998-.455-2.012-.673-3.02-.598-2.774-1.197-5.549-1.785-8.324-.05-.236-.173-.345-.38-.435a1818.998 1818.998 0 0 1-7.8-3.41c-1.305-.576-1.833-1.921-1.244-3.137.308-.638.836-1.007 1.497-1.223 1.564-.51 3.125-1.03 4.688-1.545l28.13-9.271c1.545-.51 2.684.065 3.2 1.612.006.02.032.033.049.05v.812Zm-35.543 10.51-.012.095c.12.057.237.117.358.17 2.497 1.093 4.998 2.18 7.49 3.284.29.129.505.12.782-.034 5.505-3.07 11.016-6.13 16.527-9.19.16-.089.326-.175.499-.232.451-.148.943.016 1.216.388.268.366.287.857.026 1.244a3.701 3.701 0 0 1-.402.479l-11.043 11.55c-.09.093-.173.192-.268.298l11.484 9.397 6.69-28.441-33.347 10.993m19.897-.124-.058-.065-10.286 5.713 1.5 6.946a.444.444 0 0 0 .148-.238c.39-1.357.76-2.72 1.179-4.068.112-.36.313-.729.57-1.001 2.178-2.308 4.377-4.594 6.57-6.887.127-.132.251-.267.377-.4m-6.948 14.335.046.064 3.278-2.455-2.14-1.748-1.184 4.14" stroke-linejoin="round" stroke-linecap="round" stroke-width=".5" stroke="#ededed" fill="transparent"/></g></svg>